<?xml version="1.0" encoding="UTF-8"?>
<svg xmlns="http://www.w3.org/2000/svg" version="1.1" viewBox="0 0 24 24">
  <defs>
    <style>
      .cls-1 {
        fill: #6e79fc;
      }

      .cls-2 {
        fill: #fefefe;
      }
    </style>
  </defs>
  <!-- Generator: Adobe Illustrator 28.7.7, SVG Export Plug-In . SVG Version: 1.2.0 Build 194)  -->
  <g>
    <g id="Camada_1">
      <g>
        <path class="cls-2" d="M7.4,1.5c.7,0,1.4.3,2.1.6,1.7.7,3.5.7,5.2,0,.6-.2,1.3-.5,1.9-.6,1.3-.2,2.6.1,3.7.9,2.1,1.7,2.3,3.9,2,6.3-.1,1-.4,1.9-.6,2.8,0,.6-.2,1.1-.4,1.6,0,0-.1.2,0,.3-.1.8-.3,1.5-.5,2.2,0,.1-.1.3,0,.4-.3,1.4-.6,2.7-1.1,4.1-.2.6-.5,1.3-.9,1.8-.9,1-2.3.9-3.1-.1-.4-.5-.6-1.1-.8-1.8-.3-1-.6-2.1-1.2-3-.6-1-1.4-1.1-2.3-.5,0,0,0,0,0,0-.8.8-1.1,1.9-1.4,3,0,.2,0,.3-.2.5-.2.6-.4,1.2-.8,1.7-.9,1.3-2.5,1.3-3.4,0-.7-.9-.9-2-1.2-3.1-.6-2-.8-4-1.4-6-.4-1.8-.9-3.6-1-5.5,0-2.4.9-4.2,3-5.4.4-.2.8-.4,1.3-.3,0,0,0,0,.1,0,.4,0,.8,0,1.3,0Z"/>
        <path class="cls-1" d="M12,13c-2.3,0-4.3-.9-5.8-2.7-.1-.2-.3-.3-.4-.5-.4-.3-.5-.7-.3-1.2.3-.5.7-.7,1.2-.6.5.1.7.5.6,1,0,.2,0,.3.2.4,2.4,2.4,6.5,2.6,9.2,0,.2-.2.1-.3.1-.5,0-.4.2-.7.6-.8.5-.1.9,0,1.2.4.2.4.3.8,0,1.1-1.4,1.6-3,2.9-5.2,3.2-.4,0-.8,0-1.2.1Z"/>
      </g>
    </g>
  </g>
</svg>