<?xml version="1.0" encoding="UTF-8"?>
<svg id="Camada_1" xmlns="http://www.w3.org/2000/svg" xmlns:xlink="http://www.w3.org/1999/xlink" version="1.1" viewBox="0 0 24 24">
  <!-- Generator: Adobe Illustrator 29.5.1, SVG Export Plug-In . SVG Version: 2.1.0 Build 141)  -->
  <defs>
    <style>
      .st0 {
        fill: url(#Gradiente_sem_nome_201);
      }

      .st1 {
        fill: #edf4fe;
      }

      .st2 {
        fill: url(#Gradiente_sem_nome_2011);
      }
    </style>
    <linearGradient id="Gradiente_sem_nome_201" data-name="Gradiente sem nome 201" x1="1.7" y1="22.5" x2="22.4" y2="1.8" gradientUnits="userSpaceOnUse">
      <stop offset=".1" stop-color="#006792"/>
      <stop offset=".3" stop-color="#036391"/>
      <stop offset=".5" stop-color="#0f5990"/>
      <stop offset=".6" stop-color="#22498d"/>
      <stop offset=".8" stop-color="#3d328a"/>
      <stop offset=".9" stop-color="#581c87"/>
    </linearGradient>
    <linearGradient id="Gradiente_sem_nome_2011" data-name="Gradiente sem nome 201" x1="6.8" y1="11.3" x2="17.6" y2="11.3" xlink:href="#Gradiente_sem_nome_201"/>
  </defs>
  <g id="E4m3sb.tif">
    <g>
      <rect class="st0" x=".8" y=".7" width="22.6" height="23" rx="3.5" ry="3.5"/>
      <path class="st1" d="M7.3,4.4c1.7-.3,2.5.5,3.9.7,2.6.4,6-2.4,7.8.9s-.3,5.4-.9,7.9-.7,5.3-2.1,6.2-2-1.8-2.3-2.7-.6-2.6-2.1-2-1.3,3-1.7,3.9-1.3,1.4-2.2.4-1.3-4.5-1.8-6.2-1.9-4.3-1.2-6.7,1.3-2.1,2.5-2.3h0Z"/>
      <path class="st2" d="M8,10.5c.6.3,1.1.9,1.8,1.2,1.5.7,3.6.6,5-.2s.9-.8,1.5-1.1c-.7-.8,0-1.2.8-.6s.5,1.5-.4.8c0,.5-.4.9-.7,1.2-1.8,1.6-4.9,1.8-7,.5s-1.5-1-1.4-1.7c-.4.3-.8.4-.8-.2,0-1,2.1-1.5,1.2,0h0Z"/>
    </g>
  </g>
</svg>