<?xml version="1.0" encoding="UTF-8"?>
<svg xmlns="http://www.w3.org/2000/svg" xmlns:xlink="http://www.w3.org/1999/xlink" version="1.1" viewBox="0 0 24 24">
  <defs>
    <style>
      .cls-1 {
        fill: #6e79fc;
      }

      .cls-2 {
        fill: url(#Gradiente_sem_nome_7);
      }

      .cls-3 {
        fill: #fefefe;
      }
    </style>
    <linearGradient id="Gradiente_sem_nome_7" data-name="Gradiente sem nome 7" x1="1.1" y1="4.4" x2="22.9" y2="19.6" gradientUnits="userSpaceOnUse">
      <stop offset="0" stop-color="#6287fd"/>
      <stop offset="1" stop-color="#7c6dfb"/>
    </linearGradient>
  </defs>
  <!-- Generator: Adobe Illustrator 28.7.7, SVG Export Plug-In . SVG Version: 1.2.0 Build 194)  -->
  <g>
    <g id="Camada_1">
      <g>
        <rect class="cls-2" x=".6" y=".6" width="22.7" height="22.7" rx="6.6" ry="6.6"/>
        <g>
          <path class="cls-3" d="M8.9,5c.5,0,.9.2,1.4.4,1.2.4,2.3.4,3.4,0,.4-.2.8-.3,1.3-.4.9,0,1.7,0,2.4.6,1.4,1.1,1.5,2.6,1.3,4.2,0,.6-.2,1.2-.4,1.9,0,.4-.1.7-.3,1.1,0,0,0,.1,0,.2,0,.5-.2,1-.4,1.5,0,0,0,.2,0,.3-.2.9-.4,1.8-.7,2.7-.1.4-.3.8-.6,1.2-.6.6-1.5.6-2.1,0-.3-.3-.4-.7-.6-1.2-.2-.7-.4-1.4-.8-2-.4-.6-.9-.7-1.5-.4,0,0,0,0,0,0-.5.5-.7,1.3-1,2,0,.1,0,.2-.1.3-.1.4-.3.8-.5,1.1-.6.8-1.7.8-2.2,0-.4-.6-.6-1.3-.8-2-.4-1.3-.5-2.6-.9-3.9-.3-1.2-.6-2.4-.6-3.6,0-1.6.6-2.8,2-3.6.3-.1.5-.3.8-.2,0,0,0,0,0,0,.3,0,.6,0,.8,0Z"/>
          <path class="cls-1" d="M12,12.6c-1.5,0-2.8-.6-3.8-1.8,0-.1-.2-.2-.3-.3-.3-.2-.3-.5-.2-.8.2-.3.4-.5.8-.4.3,0,.5.3.4.6,0,.1,0,.2.1.3,1.6,1.6,4.3,1.7,6.1,0,.1-.1,0-.2,0-.3,0-.3.1-.5.4-.6.3,0,.6,0,.8.3.1.2.2.5,0,.7-.9,1-2,1.9-3.4,2.1-.3,0-.6,0-.8,0Z"/>
        </g>
      </g>
    </g>
  </g>
</svg>